<svg xmlns="http://www.w3.org/2000/svg" width="28.131" height="32.181" viewBox="0 0 28.131 32.181">
  <path id="headphone2" d="M773.674,189.138c.794.143,1.588.239,2.362.44a10.479,10.479,0,0,1,4.878,2.888,10.59,10.59,0,0,1,2.869,5.375c.153.746.21,1.511.306,2.257a9.5,9.5,0,0,1,1.176.4,3.041,3.041,0,0,1,1.8,2.841c.038,2.257.048,4.524-.038,6.771a3.033,3.033,0,0,1-2.6,2.888c-.3.057-.4.163-.421.469a8.044,8.044,0,0,1-.708,3.061,4.863,4.863,0,0,1-3.453,2.716c-1.042.249-2.114.354-3.233.536a2.945,2.945,0,0,1,0,.3,1.212,1.212,0,0,1-1.215,1.2c-1.291.01-2.573.01-3.864,0a1.192,1.192,0,0,1-1.215-1.186c-.019-.689-.019-1.377,0-2.075a1.125,1.125,0,0,1,1.109-1.148q2.023-.043,4.046,0a1.13,1.13,0,0,1,1.1,1.052c.019.163.029.335.038.536a12.2,12.2,0,0,0,2.821-.363,4.678,4.678,0,0,0,1.817-.889,4.458,4.458,0,0,0,1.444-2.946c.057-.373.076-.746.115-1.157h-1.062a.638.638,0,0,1-.717-.689,2.866,2.866,0,0,1,0-.287v-11.4a.623.623,0,0,1,.679-.66c.335-.01.669-.01,1-.01.019,0,.038-.019.1-.048a9.438,9.438,0,0,0-4.39-8.063A9.334,9.334,0,0,0,767.7,191.9a9.469,9.469,0,0,0-4.447,8.158h1c.555.01.775.21.775.756V212.37c0,.507-.23.746-.727.736a20.145,20.145,0,0,1-2.745-.153,3.074,3.074,0,0,1-2.525-2.8,8.849,8.849,0,0,1-.057-1c-.01-1.769-.029-3.539.01-5.308a5.556,5.556,0,0,1,.287-1.722,3.05,3.05,0,0,1,2.42-1.961c.115-.029.22-.048.249-.105.172-.995.287-2.008.545-2.984a10.376,10.376,0,0,1,2.927-4.887,10.78,10.78,0,0,1,5.232-2.812c.574-.124,1.176-.182,1.76-.268C772.833,189.138,773.253,189.138,773.674,189.138Zm-9.88,22.82V201.247c-.631.038-1.253.019-1.855.115a1.939,1.939,0,0,0-1.7,1.855,13.621,13.621,0,0,0-.048,1.53q-.014,2.353,0,4.706c.01,1.3.536,2.1,1.616,2.334A16.549,16.549,0,0,0,763.794,211.958Zm18.5-10.635v10.588a14.3,14.3,0,0,0,1.435-.01,2.108,2.108,0,0,0,2.133-2.276c.038-1.779.038-3.558.048-5.337,0-.258.01-.526-.01-.784a2.122,2.122,0,0,0-2.133-2.181C783.277,201.294,782.8,201.323,782.292,201.323ZM771.551,220.05h3.816V218.1h-3.816Z" transform="translate(-758.961 -189.1)" fill="#fff"/>
</svg>
