<svg xmlns="http://www.w3.org/2000/svg" width="83.8" height="78.178" viewBox="0 0 83.8 78.178">
  <g id="stamp_2" data-name="stamp 2" transform="translate(-1131.459 -395.664)">
    <path id="Path_535" data-name="Path 535" d="M1146.651,464.271c-2.282,1.607-3.679,1.607-5.635,0a.4.4,0,0,0-.163.023c-2.352,1.863-4.494,1.514-6.194-.978a3.813,3.813,0,0,0-.955-.978c-2.585-1.793-2.911-3.889-1-6.334-1.63-2.422-1.63-3.609-.163-5.5a21.822,21.822,0,0,1-1-3.12,3.172,3.172,0,0,1,1-2.608,21.822,21.822,0,0,1-1-3.12,3.427,3.427,0,0,1,1.188-2.794c-1.63-2.445-1.63-3.656.023-5.775a4.027,4.027,0,0,1-1.211-3.213,3.847,3.847,0,0,1,1.77-2.864,4.554,4.554,0,0,0,1.234-1.071c1.933-2.724,3.772-3.074,6.427-1.141,2.189-1.63,3.656-1.63,5.426-.163a10.914,10.914,0,0,1,3.1-.955,11.371,11.371,0,0,1,3.074.931c2.072-1.42,3.144-1.42,5.379.116a13.771,13.771,0,0,1,.489-1.374,12.219,12.219,0,0,1,.769-1.141c-1.63-2.212-1.63-3.656-.163-5.449a11.008,11.008,0,0,1-.955-3.074,9.41,9.41,0,0,1,.862-2.864,9.809,9.809,0,0,1-.862-2.841,11.112,11.112,0,0,1,.955-3.05,3.7,3.7,0,0,1-1-3,3.856,3.856,0,0,1,1.677-2.748,6.165,6.165,0,0,0,1.467-1.327c1.746-2.492,3.912-2.864,6.1-1.118a20.683,20.683,0,0,1,3.1-1,3.25,3.25,0,0,1,2.631,1,20.689,20.689,0,0,1,3.1-1,3.221,3.221,0,0,1,2.631,1,20.689,20.689,0,0,1,3.1-1,3.221,3.221,0,0,1,2.631,1,21.334,21.334,0,0,1,3.074-1,3.405,3.405,0,0,1,2.794,1.164.454.454,0,0,0,.186-.023c2.305-1.863,4.517-1.514,6.217.955a3.81,3.81,0,0,0,.955.978c2.585,1.77,2.934,3.819,1.048,6.287a18.85,18.85,0,0,0,.978,1.63,1.578,1.578,0,0,0,.838.466,18.132,18.132,0,0,1,3.1,34.719,1.2,1.2,0,0,0-.955,1.351c.047,8.616.023,17.255.023,25.893,0,3.027-1.677,4.68-4.7,4.68h-2.189a4.193,4.193,0,0,1-4.285-4.308q-.035-9.885.023-19.793c0-.978-.116-1.77-.862-2.049a10.852,10.852,0,0,1-3.12.978,10.231,10.231,0,0,1-2.911-.885c-.326.722-.769,1.607-1.211,2.585,1.537,2.282,1.537,3.47-.116,5.612a3.972,3.972,0,0,1,1.141,3.633,4.238,4.238,0,0,1-1.84,2.538,5.06,5.06,0,0,0-1.281,1.257c-1.653,2.4-3.912,2.724-5.984,1a20.45,20.45,0,0,1-3.074,1,3.406,3.406,0,0,1-2.794-1.164c-2.561,1.63-3.586,1.63-5.728,0-2.282,1.63-3.7,1.63-5.449.163a20.447,20.447,0,0,1-3.074,1,3.406,3.406,0,0,1-2.794-1.164C1149.864,465.878,1148.84,465.878,1146.651,464.271Zm44.778-20.375c.14-1.537.116-1.537-1.257-2.119-.7-.3-1.351-.7-2.049-.978a4.562,4.562,0,0,0-1.63-.419q-9.186-.035-18.4-.023c-1.257,0-1.723-.489-1.746-1.746v-32.67c0-1.281.442-1.816,1.56-1.816h21.958a1.4,1.4,0,0,1,1.56,1.56c.023.675,0,1.351,0,2,1.537-.3,2.957-.559,4.471-.862a3.471,3.471,0,0,1-.349-.279c-1.257-.908-1.234-1.909.023-2.748.326-.233.7-.419,1-.675a.885.885,0,0,0,0-1.537,8.276,8.276,0,0,1-2.631-2.608.919.919,0,0,0-1.607,0c-.326.419-.559.885-.885,1.281a1.371,1.371,0,0,1-2.282.023c-.21-.279-.4-.582-.582-.862-.838-1.234-1.42-1.211-2.259.023a9.692,9.692,0,0,1-.605.862,1.372,1.372,0,0,1-2.235,0c-.326-.4-.582-.885-.885-1.281a.972.972,0,0,0-1.677-.023,3.976,3.976,0,0,0-.349.512c-1.281,1.886-2.072,1.886-3.33.047-.116-.163-.209-.349-.349-.512a.963.963,0,0,0-1.723.023c-.3.4-.536.838-.838,1.211a1.371,1.371,0,0,1-2.282,0c-.209-.279-.4-.582-.582-.862-.815-1.211-1.42-1.211-2.212-.023a8.381,8.381,0,0,1-.652.931,1.36,1.36,0,0,1-2.235-.023c-.326-.419-.582-.885-.885-1.281-.512-.652-1.234-.7-1.653,0a7.425,7.425,0,0,1-2.561,2.538.9.9,0,0,0-.023,1.583c.349.279.722.489,1.071.745a1.44,1.44,0,0,1,.023,2.608c-.326.233-.675.442-1,.675-.745.559-.745,1.188.023,1.77.373.279.792.512,1.141.792a1.374,1.374,0,0,1,0,2.352c-.349.256-.722.489-1.071.722-.862.605-.885,1.257-.023,1.863.349.256.745.466,1.071.722a1.387,1.387,0,0,1-.023,2.4c-.373.279-.792.512-1.141.792a.938.938,0,0,0,0,1.7c.349.256.722.466,1.071.722a1.4,1.4,0,0,1,.023,2.492c-.373.279-.792.489-1.141.792a.935.935,0,0,0,.023,1.653c.4.3.838.536,1.211.838a1.393,1.393,0,0,1,0,2.352c-.4.3-.838.536-1.234.838a.935.935,0,0,0-.023,1.653c.4.3.838.536,1.234.838a1.387,1.387,0,0,1-.023,2.4c-.373.279-.792.512-1.141.792a.938.938,0,0,0,0,1.7c.4.3.838.536,1.211.838a1.36,1.36,0,0,1,.023,2.282c-.4.3-.815.536-1.211.838-.722.536-.769,1.234-.023,1.7a7.952,7.952,0,0,1,2.491,2.492c.466.722,1.164.675,1.7-.023.279-.373.512-.768.792-1.141a1.387,1.387,0,0,1,2.4.023c.3.4.536.838.838,1.211a.959.959,0,0,0,1.63,0c.233-.279.419-.629.652-.931.932-1.351,1.91-1.351,2.841.023.186.256.349.536.536.792a.98.98,0,0,0,1.77,0c.3-.4.536-.838.838-1.211a1.36,1.36,0,0,1,2.235-.023c.279.326.489.722.745,1.071.7.978,1.327.978,2.026-.023.233-.326.442-.675.7-1a1.371,1.371,0,0,1,2.282,0c.326.419.559.885.885,1.281a.968.968,0,0,0,1.63.023,7.856,7.856,0,0,0,.489-.722C1189.682,443.454,1189.985,443.361,1191.429,443.9Zm-15.438-16.882c-.582.629-1.118,1.257-1.7,1.793a1.383,1.383,0,1,1-1.933-1.979c.629-.675,1.281-1.351,1.979-1.979a2.544,2.544,0,0,1,3.609.023c.28.256.559.536.955.908v-2.329c-1.048-.7-1.979-1.281-2.981-1.956-.21.256-.489.559-.769.862s-.559.582-.861.862a1.369,1.369,0,0,1-1.956-.023,1.351,1.351,0,0,1,.023-1.956c.629-.675,1.281-1.351,1.979-1.979a2.523,2.523,0,0,1,3.609.023,8.332,8.332,0,0,1,.862,1.188,8.115,8.115,0,0,0,1.118-1.467,18.49,18.49,0,0,1,8.313-9.85,1.047,1.047,0,0,0,.419-.722,10.5,10.5,0,0,0,.023-1.49h-19.467v30.574h14.553c-.978-1.374-1.933-2.7-2.911-4.075a2.364,2.364,0,0,1-2.468.768,13.863,13.863,0,0,1-2.468-1.514c-.466.489-.978,1.118-1.583,1.677a1.392,1.392,0,1,1-1.979-1.956,26.154,26.154,0,0,1,1.979-1.956,2.523,2.523,0,0,1,3.539-.023c.349.3.652.629.978.931,1.025-.815,1.048-1.094.279-2.608C1178.156,428.645,1178.156,428.645,1175.99,427.015Zm-8.5,20.491c-2.422,1.933-4.587,1.583-6.334-.931a6.163,6.163,0,0,0-1.467-1.327,3.588,3.588,0,0,1-1.607-3.772,11.847,11.847,0,0,1,1.025-2.329c-1.211-1.63-1.3-2.119-.838-4.331h-15.6a4.75,4.75,0,0,1,0,.815c-.163.908.233,1.351,1.048,1.77a23.313,23.313,0,0,1,11.5,13.086c.442,1.211.745,2.492,1.118,3.749h16.975v-6.706C1170.542,449.136,1169.587,449.136,1167.491,447.506Zm14.227-22.494a15.334,15.334,0,1,0,15.275-15.345A15.354,15.354,0,0,0,1181.719,425.012Zm-25.1,36.023c1.281-1.071,1.956-.978,2.841.326.186.279.372.582.582.862a.938.938,0,0,0,1.607,0c.326-.419.559-.885.885-1.281a1.36,1.36,0,0,1,2.282-.023c.279.349.489.722.722,1.071.652.955,1.3.931,1.956-.023.233-.326.442-.7.675-1a1.393,1.393,0,0,1,2.352,0c.3.4.536.838.838,1.211a.935.935,0,0,0,1.653.023c.279-.373.512-.768.792-1.141a1.4,1.4,0,0,1,2.492.023c.279.373.489.792.792,1.141.489.629,1.188.652,1.583,0a7.849,7.849,0,0,1,2.538-2.561c.7-.442.652-1.141,0-1.653-.349-.279-.722-.489-1.071-.722a1.429,1.429,0,0,1-.023-2.561c.373-.279.792-.489,1.141-.792a.968.968,0,0,0,0-1.63,6.406,6.406,0,0,0-.652-.442c-1.677-1.141-1.723-1.933-.093-3.144.023-.023.023-.093.023-.116-.559-.373-1.118-.722-1.49-.978-1,.466-1.909.885-2.911,1.351v6.217c0,1.49-.442,1.909-1.909,1.909h-17.58C1156.617,458.45,1156.617,459.684,1156.617,461.035Zm37.653-12.271v20.468c0,1.3.466,1.793,1.77,1.793h1.909c1.467,0,1.886-.442,1.886-1.933V449.6c0-.279-.023-.559-.047-.838Zm-35.953-19.979a1.584,1.584,0,0,1-1.7-.931c-.186-.3-.373-.582-.582-.862-.559-.768-1.188-.768-1.77,0-.21.279-.4.582-.582.862-.885,1.281-1.91,1.281-2.794-.047-.186-.279-.373-.582-.582-.862a.945.945,0,0,0-1.7.023c-.279.373-.512.792-.792,1.164a1.379,1.379,0,0,1-2.4,0c-.233-.3-.419-.629-.629-.931-.7-1.025-1.3-1.025-2-.023-.21.3-.419.629-.629.931a1.394,1.394,0,0,1-2.445-.023c-.279-.373-.489-.792-.768-1.164-.512-.675-1.211-.7-1.653,0a7.649,7.649,0,0,1-2.468,2.492c-.745.466-.7,1.188,0,1.7.373.279.768.512,1.141.792a1.4,1.4,0,0,1,.023,2.4c-.21.163-.419.326-.675.512,1.56.326,3.027.605,4.564.931v-1.84c0-1.49.419-1.933,1.909-1.933h16.16C1158.084,430.857,1158.2,429.855,1158.317,428.784Zm-10.153,32.576v-4.285h-6.427c-1.42,0-1.863-.442-1.863-1.863,0-3.213,0-6.45-.023-9.664,0-.279-.07-.745-.256-.815-1-.466-2.049-.838-3.237-1.281.443,1.444.3,1.793-.722,2.515-.233.163-.489.326-.722.489-.838.605-.862,1.281-.023,1.886.349.256.722.466,1.071.745a1.387,1.387,0,0,1-.023,2.4c-.373.279-.792.512-1.141.792a.97.97,0,0,0,0,1.723c.373.279.768.512,1.141.792a1.4,1.4,0,0,1-.023,2.445c-.373.279-.792.489-1.141.792-.652.512-.7,1.234,0,1.653a7.425,7.425,0,0,1,2.538,2.561.9.9,0,0,0,1.583.023c.186-.233.326-.489.489-.722,1.071-1.63,2.026-1.63,3.074-.047.163.233.3.489.489.722a.935.935,0,0,0,1.653,0c.326-.419.559-.885.885-1.281a1.365,1.365,0,0,1,2.189-.093A2.614,2.614,0,0,1,1148.164,461.361Zm-5.5-21.236c0,.768.047,1.537,0,2.259a1.253,1.253,0,0,0,.652,1.281,17.324,17.324,0,0,1,6.1,7.335c.466,1.048.815,2.166,1.211,3.26h2.678C1152.542,448.833,1147.931,442.453,1142.669,440.124Zm.047,6.59v7.568h4.913A15.331,15.331,0,0,0,1142.715,446.714Zm51.578-.838h5.5v-2.818h-5.5Zm-54.418-4.215c0-.838.023-1.653-.023-2.445a.651.651,0,0,0-.3-.512c-1-.3-2.026-.559-3.237-.885.722,1.374.023,2.072-.885,2.655C1136.941,440.846,1138.338,441.242,1139.875,441.661Zm13.878,19.513v-4.005h-2.7v3.679C1152.309,460.057,1152.705,460.1,1153.753,461.174Z" transform="translate(0)" fill="#fff"/>
    <path id="Path_536" data-name="Path 536" d="M1218.3,663.728c-1.071-1.071-1.467-1.118-2.7-.349V659.7h2.7Z" transform="translate(-64.548 -202.554)" fill="#fff"/>
    <path id="Path_537" data-name="Path 537" d="M1384.378,480.427a12.539,12.539,0,1,1-12.411-12.528A12.567,12.567,0,0,1,1384.378,480.427Zm-22.307,0a9.757,9.757,0,1,0,9.826-9.733A9.779,9.779,0,0,0,1362.071,480.427Z" transform="translate(-174.787 -55.415)" fill="#fff"/>
  </g>
</svg>
