<svg xmlns="http://www.w3.org/2000/svg" width="89.511" height="89.511" viewBox="0 0 89.511 89.511">
  <g id="Group_48" data-name="Group 48" transform="translate(-198 -1513.2)">
    <path id="Path_47" data-name="Path 47" d="M139.023,262.089a1.209,1.209,0,0,0,.14-.3,7.4,7.4,0,0,1,7.612-6H184.7c-.14-.327-.21-.56-.3-.794a37.356,37.356,0,0,1-3.6-16.041v-11.6c0-2.569,1.448-4.04,3.993-4.25,5.184-.42,10.274-1.331,14.967-3.713.63-.327,1.191-.7,1.8-1.051L203.866,217h1.564c.771.444,1.564.887,2.335,1.331.607.35,1.191.747,1.8,1.051,4.74,2.405,9.83,3.316,15.061,3.736A3.872,3.872,0,0,1,228.5,227.2c0,2.522.023,5.067,0,7.589-.047,2.709.07,5.441-.233,8.1a37.053,37.053,0,0,1-11.068,22.86,1.96,1.96,0,0,0-.63,1.518q.035,15.551,0,31.1a9.441,9.441,0,0,1-.257,2.428,7.407,7.407,0,0,1-7.519,5.7H155.508c-2.989,0-6,.023-8.99,0a7.432,7.432,0,0,1-7.332-5.814,3.9,3.9,0,0,0-.187-.467C139.023,287.47,139.023,274.791,139.023,262.089Zm74.58,6.888c-.374.257-.607.42-.841.56-2.1,1.238-4.2,2.5-6.328,3.689a3.64,3.64,0,0,1-3.362.093,37.521,37.521,0,0,1-16.111-13.776,1.5,1.5,0,0,0-1.448-.817q-19.229.035-38.457.023c-3.292,0-5.067,1.775-5.067,5.067v34.6c0,3.292,1.775,5.09,5.067,5.09H208.49c3.339,0,5.114-1.775,5.114-5.137V270.051C213.6,269.748,213.6,269.444,213.6,268.977Zm12.142-34.955a.646.646,0,0,1-.21-.023c0-2.242-.023-4.483,0-6.725,0-.794-.327-1.167-1.121-1.214-1.1-.07-2.195-.187-3.292-.327-5.627-.724-11.021-2.1-15.738-5.464a1.168,1.168,0,0,0-1.518.023,28.152,28.152,0,0,1-2.5,1.588c-5.09,2.709-10.624,3.713-16.275,4.18-1.121.093-1.308.28-1.308,1.378,0,2.242-.047,4.483,0,6.725a74.269,74.269,0,0,0,.374,9.41c1.821,12.422,8.593,21.3,19.8,26.829a1.764,1.764,0,0,0,1.378.023c10.858-5.277,17.513-13.823,19.637-25.708C225.582,241.214,225.488,237.595,225.745,234.022Z" transform="translate(59 1296.2)" fill="#fff"/>
    <path id="Path_49" data-name="Path 49" d="M178.468,415.017c1.1,0,2.218-.07,3.316.023a4.362,4.362,0,0,1,4.063,4.25c.047,1.051.023,2.1,0,3.152a4.455,4.455,0,0,1-4.413,4.483c-2.031.047-4.063.047-6.118,0a4.4,4.4,0,0,1-4.366-4.413c-.023-1.1-.023-2.218.023-3.316a4.314,4.314,0,0,1,3.993-4.133c1.168-.117,2.335-.047,3.5-.047Zm-.07,2.966h0c-.981,0-1.985-.023-2.965.023a1.391,1.391,0,0,0-1.471,1.494q-.035,1.436,0,2.872a1.447,1.447,0,0,0,1.518,1.564c1.938.047,3.9.047,5.837,0a1.5,1.5,0,0,0,1.564-1.611c.023-.911.023-1.8,0-2.709a1.47,1.47,0,0,0-1.611-1.634C180.313,417.959,179.356,417.983,178.4,417.983Z" transform="translate(34.522 1144.439)" fill="#fff"/>
    <path id="Path_50" data-name="Path 50" d="M397.218,531.036v-5.744a1.491,1.491,0,0,1,1.074-1.611,1.434,1.434,0,0,1,1.891,1.354c.047,2.5.023,5,0,7.519A1.354,1.354,0,0,1,398.759,534c-2.989.023-6,.023-8.99,0a1.4,1.4,0,0,1-1.471-1.494,1.5,1.5,0,0,1,1.635-1.471c2.031-.023,4.086,0,6.118,0Z" transform="translate(-132.086 1061.18)" fill="#fff"/>
    <path id="Path_51" data-name="Path 51" d="M178.14,552.165H173a1.329,1.329,0,0,1-1.448-1,2.562,2.562,0,0,1,.42-1.565,1.457,1.457,0,0,1,1.1-.373c3.362-.023,6.748-.023,10.111-.023a1.433,1.433,0,0,1,1.634,1.4,1.483,1.483,0,0,1-1.611,1.564C181.526,552.189,179.821,552.165,178.14,552.165Z" transform="translate(34.057 1041.569)" fill="#fff"/>
    <path id="Path_52" data-name="Path 52" d="M226.613,488.108c-.934,0-1.868.023-2.8,0a1.487,1.487,0,1,1-.023-2.965c1.915-.023,3.853-.023,5.767,0a1.486,1.486,0,1,1-.047,2.965C228.528,488.131,227.571,488.108,226.613,488.108Z" transform="translate(-4.773 1090.682)" fill="#fff"/>
    <path id="Path_53" data-name="Path 53" d="M380.06,488.108c-.957,0-1.915.023-2.872,0a1.443,1.443,0,0,1-1.588-1.471,1.46,1.46,0,0,1,1.588-1.494c1.915-.023,3.853-.023,5.767,0a1.484,1.484,0,0,1,1.564,1.518,1.466,1.466,0,0,1-1.564,1.424C381.975,488.155,381.017,488.108,380.06,488.108Z" transform="translate(-122.354 1090.682)" fill="#fff"/>
    <path id="Path_54" data-name="Path 54" d="M175.49,488.108c-.934,0-1.868.023-2.8,0a1.431,1.431,0,0,1-1.588-1.471,1.448,1.448,0,0,1,1.588-1.494q2.837-.035,5.674,0a1.491,1.491,0,1,1,.023,2.965h-.163q-1.366.035-2.732,0Z" transform="translate(34.395 1090.682)" fill="#fff"/>
    <path id="Path_55" data-name="Path 55" d="M277.658,488.127c-.957,0-1.915.023-2.872,0a1.475,1.475,0,1,1-.023-2.942c1.961-.047,3.9-.047,5.861,0a1.484,1.484,0,1,1-.047,2.965C279.6,488.174,278.615,488.127,277.658,488.127Z" transform="translate(-43.862 1090.663)" fill="#fff"/>
    <path id="Path_56" data-name="Path 56" d="M328.79,488.108c-.934,0-1.868.023-2.8,0a1.473,1.473,0,0,1-1.588-1.494,1.451,1.451,0,0,1,1.611-1.471q2.837-.035,5.674,0a1.5,1.5,0,0,1,1.635,1.541c-.023.841-.654,1.378-1.658,1.448H331.5c-.911,0-1.821,0-2.709-.023Z" transform="translate(-83.109 1090.682)" fill="#fff"/>
    <path id="Path_57" data-name="Path 57" d="M200.38,523.523c.724,0,1.448-.023,2.172,0a1.473,1.473,0,0,1,.093,2.942q-2.312.105-4.623,0A1.435,1.435,0,0,1,196.6,524.9a1.473,1.473,0,0,1,1.494-1.4h.163c.724.023,1.424.023,2.125.023Z" transform="translate(14.852 1061.268)" fill="#fff"/>
    <path id="Path_58" data-name="Path 58" d="M343.4,258.974v-4.11a3.111,3.111,0,0,1,3.012-3.479,40.225,40.225,0,0,0,11.278-3.2,16.824,16.824,0,0,0,1.728-.841,3.657,3.657,0,0,1,3.806,0,36.621,36.621,0,0,0,12.142,3.9c2.685.35,4.016,1.191,3.853,4.6-.163,3.432.093,6.912-.4,10.274-1.471,10.321-6.911,18.1-15.925,23.35a3.1,3.1,0,0,1-3.316-.047c-8.92-5.3-14.314-13.006-15.878-23.3a7.174,7.174,0,0,1-.14-1.214c-.023-1.985,0-3.946,0-5.931Zm2.989-4.553c0,2.522-.047,4.974,0,7.4.257,10.811,5.09,19.007,14.2,24.728a1.156,1.156,0,0,0,1.4.023A28.933,28.933,0,0,0,374.666,271c1.915-5.347,1.541-10.9,1.518-16.415,0-.047-.047-.093-.093-.187-.14-.023-.3-.07-.49-.093a38.208,38.208,0,0,1-12-3.5,4.5,4.5,0,0,0-4.623,0A37.642,37.642,0,0,1,346.389,254.421Z" transform="translate(-97.673 1273.35)" fill="#fff"/>
    <path id="Path_59" data-name="Path 59" d="M391.142,293.176c.257-4.016,1.588-5.814,4.32-5.884a4.44,4.44,0,0,1,3.783,1.8c.957,1.214.887,2.662.887,4.063,2.242.514,2.965,1.424,2.965,3.666v8.126a2.935,2.935,0,0,1-3.2,3.2q-4.238.035-8.476,0a2.962,2.962,0,0,1-3.222-3.269v-8.032C388.2,294.577,388.947,293.667,391.142,293.176Zm.07,11.909h8.85v-8.826h-8.85ZM397.12,293.2c-.023-1,.35-2.125-.747-2.685a1.816,1.816,0,0,0-1.518.047c-1.027.607-.63,1.681-.654,2.639Z" transform="translate(-132.012 1242.323)" fill="#fff"/>
    <path id="Path_60" data-name="Path 60" d="M416.758,339.746a1.5,1.5,0,0,1-1.471,1.518,1.483,1.483,0,0,1-.07-2.965A1.537,1.537,0,0,1,416.758,339.746Z" transform="translate(-151.626 1203.225)" fill="#fff"/>
  </g>
</svg>
