<svg id="shopping_cart" data-name="shopping cart" xmlns="http://www.w3.org/2000/svg" width="17.838" height="18.01" viewBox="0 0 17.838 18.01">
  <path id="Path_5" data-name="Path 5" d="M601.687,326.129c-.44,0-.865.005-1.29,0a.616.616,0,0,1-.586-.85.581.581,0,0,1,.555-.389c.632-.005,1.27-.01,1.9,0a.618.618,0,0,1,.606.591c.083.767.161,1.529.239,2.3,0,.062.021.13.031.213h13.164a1.211,1.211,0,0,1,1.28,1.005,2.233,2.233,0,0,1-.057.762c-.472,2.223-.943,4.447-1.43,6.665a1.853,1.853,0,0,1-1.866,1.5h-9.583a1.858,1.858,0,0,1-1.907-1.757c-.2-1.907-.4-3.814-.606-5.727C601.987,329.016,601.837,327.591,601.687,326.129Zm1.576,3.115c.062.575.125,1.14.181,1.7.182,1.71.358,3.42.539,5.126a.617.617,0,0,0,.684.606h9.541a.632.632,0,0,0,.684-.555q.506-2.348,1.005-4.7c.156-.726.311-1.451.472-2.187C611.995,329.244,607.636,329.244,603.262,329.244Z" transform="translate(-599.762 -324.885)" fill="#fc5112"/>
  <path id="Path_6" data-name="Path 6" d="M673.455,604.221a1.861,1.861,0,1,1,1.866-1.855A1.865,1.865,0,0,1,673.455,604.221Zm.005-1.244a.619.619,0,1,0-.622-.617A.629.629,0,0,0,673.46,602.977Z" transform="translate(-667.877 -586.216)" fill="#fc5112"/>
  <path id="Path_7" data-name="Path 7" d="M815.3,602.365a1.863,1.863,0,1,1,1.871,1.86A1.862,1.862,0,0,1,815.3,602.365Zm1.871.612a.62.62,0,1,0-.627-.606A.625.625,0,0,0,817.17,602.977Z" transform="translate(-804.129 -586.216)" fill="#fc5112"/>
</svg>
