<svg xmlns="http://www.w3.org/2000/svg" width="59.165" height="67" viewBox="0 0 59.165 67">
  <g id="stamp" transform="translate(-1221 -398.1)">
    <path id="Path_532" data-name="Path 532" d="M1234.886,465.1H1221V451.3c.647,0,1.207.017,1.766,0a1.986,1.986,0,1,0-.017-3.953c-.56-.017-1.119,0-1.7,0v-13.8h1.819a1.971,1.971,0,1,0-.035-3.935h-1.8v-13.8c.56,0,1.084.018,1.609,0a4.077,4.077,0,0,0,1.032-.14,1.905,1.905,0,0,0,1.242-2.011,1.88,1.88,0,0,0-1.609-1.731,19.966,19.966,0,0,0-2.291-.017V398.1H1234.8c0,.367-.018.7,0,1.049a6.531,6.531,0,0,0,.14,1.556,1.908,1.908,0,0,0,2.116,1.294,1.986,1.986,0,0,0,1.7-1.959c.035-.647,0-1.294,0-1.924h9.864v1.8a1.975,1.975,0,0,0,1.959,2.081,1.945,1.945,0,0,0,1.959-2.081V398.1h9.846v1.731a1.983,1.983,0,1,0,3.953.017c.017-.577,0-1.172,0-1.749h13.764v13.746h-1.487a4.41,4.41,0,0,0-.839.07,1.919,1.919,0,0,0-1.539,1.994,1.868,1.868,0,0,0,1.626,1.836c.752.07,1.5.017,2.256.017v13.851h-1.8a1.97,1.97,0,1,0-.018,3.935h1.836v13.8c-.577,0-1.119-.018-1.644,0a3.215,3.215,0,0,0-1.084.192,1.93,1.93,0,0,0-1.154,2.134,1.961,1.961,0,0,0,1.819,1.609c.682.052,1.364.017,2.1.017v13.8h-13.886c.017-.612.07-1.207.052-1.819a1.969,1.969,0,0,0-1.924-2.116,1.991,1.991,0,0,0-2.011,2.1c-.018.612-.018,1.224-.035,1.819h-9.829c0-.682.018-1.347,0-2.029a1.959,1.959,0,0,0-3.917,0c-.017.682,0,1.347,0,2.029h-9.829a22.317,22.317,0,0,0-.122-2.413,1.866,1.866,0,0,0-1.994-1.522,1.9,1.9,0,0,0-1.836,1.714C1234.816,463.613,1234.886,464.365,1234.886,465.1ZM1225,408.208c.07.035.14.087.21.122a5.949,5.949,0,0,1,.1,10.948.838.838,0,0,0-.35.577c-.018,1.871,0,3.76-.018,5.631a.649.649,0,0,0,.437.682,5.9,5.9,0,0,1,.017,10.773.679.679,0,0,0-.455.735c.018,1.836.018,3.673,0,5.492a.679.679,0,0,0,.455.735,5.909,5.909,0,0,1,0,10.773.679.679,0,0,0-.455.735c.018,1.7,0,3.41.018,5.107,0,.192.035.367.052.595,1.889,0,3.725-.017,5.544.017a.863.863,0,0,0,.927-.577,5.866,5.866,0,0,1,8.1-2.676,6.058,6.058,0,0,1,2.816,3.253c.717,0,1.417-.017,2.116.017a.637.637,0,0,0,.717-.49,5.51,5.51,0,0,1,1.976-2.4,5.867,5.867,0,0,1,8.745,2.344c.192.4.385.56.822.525.665-.035,1.347-.017,2.011-.017a2.045,2.045,0,0,0,.14-.262,5.714,5.714,0,0,1,5.351-3.655,5.791,5.791,0,0,1,5.579,3.515.858.858,0,0,0,.612.385c1.766.035,3.533.017,5.3.017.14,0,.28-.035.472-.052,0-1.994.017-3.952-.018-5.911,0-.157-.262-.35-.437-.455a5.741,5.741,0,0,1-3.463-5.4,5.645,5.645,0,0,1,3.5-5.387.677.677,0,0,0,.437-.735c-.017-1.819-.017-3.62,0-5.439a.78.78,0,0,0-.525-.822,5.905,5.905,0,0,1,.035-10.721.725.725,0,0,0,.49-.787c-.017-1.766-.035-3.533,0-5.3a.912.912,0,0,0-.595-.979,5.8,5.8,0,0,1-.822-10.074,2.6,2.6,0,0,0,1.417-2.886,2.83,2.83,0,0,1,0-.385v-3.76c-.28-.018-.49-.035-.7-.035-1.609,0-3.235.017-4.844-.018a.893.893,0,0,0-.979.595,5.811,5.811,0,0,1-10.091.8,2.614,2.614,0,0,0-2.833-1.417.851.851,0,0,0-.857.577,5.65,5.65,0,0,1-4.74,3.34,5.278,5.278,0,0,1-5.422-2.588,2.312,2.312,0,0,0-2.676-1.312h-.07c-.49-.1-.717.157-.909.577a5.812,5.812,0,0,1-10.091.822,2.706,2.706,0,0,0-2.9-1.417c-1.154.087-2.308.017-3.463.017-.21,0-.42.018-.665.035C1225,404.116,1225,406.162,1225,408.208Z" transform="translate(0 0)" fill="#fff"/>
    <path id="Path_533" data-name="Path 533" d="M1324.415,465.6v43.337H1289V465.6Zm-3.953,29.294V469.57H1292.97v17.576c2.378-1.854,4.687-3.638,7.083-5.509,2.921,2.921,5.789,5.789,8.727,8.744l2.711-2.816C1314.5,490.014,1317.437,492.41,1320.463,494.894Zm-27.51,10.091H1320.5c0-1.609.017-3.165-.018-4.74,0-.192-.227-.4-.4-.542-.944-.8-1.924-1.574-2.886-2.361-1.8-1.469-3.6-2.956-5.491-4.495-.175.21-.315.4-.49.577-2.4,2.413-4.809,4.827-7.223,7.205a1.559,1.559,0,0,1-1.015.42c-3.1.035-6.191.017-9.286.017-.245,0-.507.017-.752.035C1292.953,502.432,1292.953,503.691,1292.953,504.985Zm12.854-11.7c-2.1-2.1-4.162-4.162-6.261-6.243-1.819,1.417-3.655,2.9-5.579,4.3a2.208,2.208,0,0,0-1.067,2.151c.1,1.189.017,2.378.017,3.55a1.393,1.393,0,0,0,.28.052h8.447a.732.732,0,0,0,.472-.157C1303.376,495.716,1304.618,494.474,1305.807,493.285Z" transform="translate(-56.108 -55.695)" fill="#fff"/>
    <path id="Path_534" data-name="Path 534" d="M1416.948,526.065H1413.1V522.2h3.848Z" transform="translate(-158.504 -102.396)" fill="#fff"/>
  </g>
</svg>
