<svg xmlns="http://www.w3.org/2000/svg" width="78.44" height="78.44" viewBox="0 0 78.44 78.44">
  <g id="Group_44" data-name="Group 44" transform="translate(-2136.3 -1969.399)">
    <path id="Path_43" data-name="Path 43" d="M1653.823,542.258c-1.7-1-3.48-1.924-5.1-3.03a25.234,25.234,0,0,1-9.068-10.255,18.169,18.169,0,0,1-1.658-7.717c.021-3.705,0-7.41,0-11.115a1.708,1.708,0,0,1,1.392-1.986c4.708-1.658,9.416-3.316,14.144-4.933a2.525,2.525,0,0,1,1.556,0c4.749,1.617,9.5,3.275,14.206,4.974.512.184.9.737,1.351,1.126v13.633a2.325,2.325,0,0,0-.123.348,19.444,19.444,0,0,1-4.995,10.951,32.72,32.72,0,0,1-10.808,7.983C1654.437,542.258,1654.13,542.258,1653.823,542.258Zm13.694-25.382h-.1c0-1.74-.021-3.48.021-5.2a.81.81,0,0,0-.635-.942c-3.991-1.372-7.983-2.784-12-4.155a1.482,1.482,0,0,0-.942,0c-3.991,1.371-7.983,2.784-12,4.155-.511.164-.634.409-.634.921.021,3.173.021,6.325,0,9.5a14.955,14.955,0,0,0,2.252,8.065,26.462,26.462,0,0,0,10.48,9.375,1.167,1.167,0,0,0,.9-.082,29.849,29.849,0,0,0,6.959-5.1c2.743-2.722,4.852-5.834,5.343-9.744C1667.456,521.42,1667.415,519.148,1667.517,516.876Z" transform="translate(544.091 1505.58)" fill="#fff"/>
    <path id="Path_45" data-name="Path 45" d="M1476.4,331.034c-.369.184-.655.287-.921.43q-13.142,6.571-26.263,13.141c-.348.184-.635.307-.614.819q.03,13.2.02,26.426c0,.082.021.143.041.307.266-.123.512-.246.757-.368,1.1-.573,2.19-1.187,3.316-1.76a1.625,1.625,0,0,1,2.251.635,1.583,1.583,0,0,1-.717,2.211c-1.719.942-3.459,1.842-5.2,2.763-2.354,1.249-1.822,1.228-4.156,0q-14.646-7.738-29.312-15.434a2.142,2.142,0,0,1-1.31-2.108q.031-14.769,0-29.558a1.778,1.778,0,0,1,1.044-1.781q14.155-7.062,28.33-14.145c.717-.348,1.433-.676,2.108-1.064a2.256,2.256,0,0,1,2.375-.021c4.319,2.19,8.659,4.34,13,6.509q8.72,4.36,17.44,8.7a1.745,1.745,0,0,1,1.1,1.74c0,5.445-.02,10.869-.02,16.314,0,1.494-.573,2.293-1.637,2.293s-1.658-.8-1.658-2.293V331.915C1476.4,331.71,1476.4,331.423,1476.4,331.034Zm-43.989,7.43V347.8a1.577,1.577,0,0,1-1.453,1.74,1.613,1.613,0,0,1-1.781-1.8c0-3.418-.021-6.837,0-10.255a.9.9,0,0,0-.532-.962c-3.5-1.719-6.98-3.48-10.46-5.22a3.15,3.15,0,0,0-.573-.184c-.02.184-.041.286-.041.389q0,12.8-.021,25.587c0,.491.246.655.594.839l26.59,14a5.627,5.627,0,0,0,.573.225c.02-.225.041-.389.041-.532q0-13.049.021-26.119a.877.877,0,0,0-.614-.9q-5.834-2.886-11.627-5.813C1432.907,338.67,1432.7,338.588,1432.416,338.465Zm2.047-2.681c4.053,2.026,7.942,3.971,11.832,5.936a1.349,1.349,0,0,0,1.412,0q12.957-6.509,25.915-12.978c.2-.1.409-.246.7-.409a3.566,3.566,0,0,0-.41-.246c-3.869-1.945-7.738-3.889-11.647-5.793a1.381,1.381,0,0,0-1.023.082q-10.163,5.036-20.326,10.153Zm23.683-15.516c-.328-.164-.512-.287-.716-.389-3.255-1.638-6.53-3.255-9.784-4.913a1.294,1.294,0,0,0-1.331,0c-8.024,4.033-16.048,8.024-24.072,12.057-.839.409-1.658.839-2.6,1.31.307.184.491.287.7.389,3.255,1.638,6.53,3.255,9.764,4.913a1.331,1.331,0,0,0,1.351-.021q5.527-2.794,11.074-5.547C1447.706,325.487,1452.844,322.908,1458.146,320.267Z" transform="translate(722 1658.2)" fill="#fff"/>
    <path id="Path_46" data-name="Path 46" d="M1684.229,572.316c1.863-1.924,3.684-3.807,5.486-5.67.819-.839,1.617-1.7,2.456-2.538a1.624,1.624,0,0,1,2.436-.123,1.656,1.656,0,0,1-.1,2.395q-4.545,4.729-9.109,9.416a1.648,1.648,0,0,1-2.743-.164c-1.7-2.17-3.378-4.36-5.056-6.55a1.641,1.641,0,1,1,2.559-2.006C1681.506,568.795,1682.837,570.514,1684.229,572.316Z" transform="translate(512.988 1457.551)" fill="#fff"/>
  </g>
</svg>
